# xmcd
#
# Track frame offsets: 
#        150
#        35755
#        59130
#        74415
#        113031
#        114875
#        141045
#
# Disc length: 2577 seconds
#
# Revision: 0
# Processed by: cddbd v1.5.2PL0 Copyright (c) Steve Scherf et al.
# Submitted via: ExactAudioCopy v0.95a5
#
DISCID=660a0f07
DTITLE=John Butler Trio - Live at St. Gallen
DYEAR=2006
DGENRE=
TTITLE0=Treat Yo Mama
TTITLE1=Company Sin
TTITLE2=Somethings Gotta Give
TTITLE3=What You Want
TTITLE4=Band Introduction
TTITLE5=Oldman
TTITLE6=Ocean
EXTD=
EXTT0=
EXTT1=
EXTT2=
EXTT3=
EXTT4=
EXTT5=
EXTT6=
PLAYORDER=
